<?xml version="1.0" encoding="utf-8"?>
<!-- Generator: Adobe Illustrator 25.2.1, SVG Export Plug-In . SVG Version: 6.00 Build 0)  -->
<svg version="1.1" xmlns="http://www.w3.org/2000/svg" xmlns:xlink="http://www.w3.org/1999/xlink" x="0px" y="0px"
	 viewBox="0 0 817.07 834.1" style="enable-background:new 0 0 817.07 834.1;" xml:space="preserve">
<style type="text/css">
	.st0{fill:#595959;}
	.st1{fill:url(#SVGID_1_);}
	.st2{fill:#595959;stroke:#000000;stroke-width:0.25;stroke-miterlimit:10;}
	.st3{fill:#801710;}
</style>
<g id="Capa_1">
</g>
<g id="Capa_2">
	<g>
		<path class="st0" d="M411.99,655.39c0,0,10.42-9.2,34.42-14s44-13.2,44-13.2s29.6-15.6,35.6-19.6s20-14,20-14
			c14.9-12.49,25.39-24.91,32.4-34.4c3.43-4.65,17.31-23.67,23.6-43.2c3.5-10.87,5.2-22.4,5.2-22.4c0.48-3.26,0.76-5.99,0.94-7.9
			c0.27-5.8,0.53-11.6,0.8-17.4c-0.05-4.23-0.09-8.46-0.14-12.7v-43.2v-40.4l-1.6-207.6h-151.6l-43.62-22.6l-37.98,21.8l-158.8,1.2
			v300.8c0,0-1.2,33.2,9.2,55.2c10.4,22,12,24.4,12,24.4s15.2,23.6,30,37.2c14.8,13.6,14.8,13.6,14.8,13.6s22.4,22.4,68.8,35.6
			C396.41,645.79,411.99,655.39,411.99,655.39z"/>
		<linearGradient id="SVGID_1_" gradientUnits="userSpaceOnUse" x1="356.8097" y1="341.6044" x2="560.3367" y2="508.5632">
			<stop  offset="0.056" style="stop-color:#000000"/>
			<stop  offset="0.1218" style="stop-color:#0A0A0A"/>
			<stop  offset="0.1607" style="stop-color:#232322"/>
			<stop  offset="0.1927" style="stop-color:#3C3C3B"/>
			<stop  offset="0.2208" style="stop-color:#515150"/>
			<stop  offset="0.2465" style="stop-color:#6B6A6A"/>
			<stop  offset="0.2704" style="stop-color:#898988"/>
			<stop  offset="0.2929" style="stop-color:#A9A9A9"/>
			<stop  offset="0.3143" style="stop-color:#CCCCCC"/>
			<stop  offset="0.3341" style="stop-color:#F0F0F0"/>
			<stop  offset="0.3415" style="stop-color:#FFFFFF"/>
			<stop  offset="0.4104" style="stop-color:#B9B9B9"/>
			<stop  offset="0.4939" style="stop-color:#6B6B6B"/>
			<stop  offset="0.5628" style="stop-color:#313131"/>
			<stop  offset="0.6137" style="stop-color:#0D0D0D"/>
			<stop  offset="0.6408" style="stop-color:#000000"/>
		</linearGradient>
		<path class="st1" d="M429.84,506.99v77.6l-25.2-28.4v-49.2h-139.6c0,0,6-8,7.6-8.4s13.2-9.2,14-10.8c0.8-1.6,9.2-6.4,10.8-14.4
			c1.6-8,1.2-17.6,1.2-17.6l0.4-104.4l-0.4-91.6l-33.6-32h48.8h182.4c4.79,0.61,10.55,1.89,16.7,4.5
			c17.6,7.48,27.13,21.12,31.04,27.6c1.1,2.08,2.68,5.3,4.11,9.4c4.67,13.32,3.7,24.75,3.75,28.9c0.4,31.2,0,94.8,0,94.8l0.18,40.4
			c0,0,1.42,34.4-32.58,58.8c-8.72,4.96-21.57,10.96-38,14.4C459.54,511.17,441.09,509.14,429.84,506.99z"/>
		<path class="st2" d="M431.54,461.79v20.4c0,0,50.4,0.8,51.6,0c1.2-0.8,46.8-10,45.6-51.2s0.02-92.4,0.02-92.4
			c0-13.83,0-27.67,0-41.5c-0.2-3.52-1.62-21.75-17.06-35.29c-12.62-11.07-26.88-12.22-31.23-12.4c-16.31,0-32.62,0-48.94,0v77.2
			V461.79z"/>
		<path class="st0" d="M324.34,461.96v20.23c14.59,0.33,31.91,0.59,51.53,0.6c8.94,0.01,14.74-0.07,20.31-3.79
			c10.48-7,12.14-21.54,13.19-34.81c0,0,0-104.39,0-104.39c0-13.24,0-26.47,0-39.71c0.12-2.17,1.25-28.55-11.92-39.74
			c-2.98-2.53-6.58-4.46-6.58-4.46c-8.51-4.54-16.71-4.76-21.05-4.54l-45.49,0v76.55V461.96z"/>
		<path class="st0" d="M646.74,165.79h13.6v42.8v64.8v56.4v64v74c0,0,3.2,54.4-13.6,87.2s-29.6,48-29.6,48s-31.2,37.2-54.4,52.4
			s-46.4,28-46.4,28l-72.8,28l-32.42,15.5l-64.38-25.9c0,0-44.8-16-79.2-40s-57.2-52-57.2-52s-17.2-18.4-28.4-46.8
			c-11.2-28.4-18.4-46.4-18.4-89.6s0-94.4,0-94.4v-212.4h14.4l-0.8,139.6l1.2,136.4c0,0-6.4,72,19.6,115.2s28.4,45.6,28.4,45.6
			s21.2,26,43.6,41.2c22.4,15.2,39.2,24.4,39.2,24.4s50.8,22.4,51.2,22.4c0.4,0,50.78,18.09,50.78,18.09l34.42-14.09l42-15.2
			l38-18.4l30.8-20.8l26-21.2c0,0,37.2-35.6,52.8-80c6.36-18.09,9.54-45.97,10-72c0.01-0.54,0.02-0.99,0.02-1.3
			c0.39-25.28,0.79-50.57,1.18-75.85v-78.05L646.74,165.79z"/>
		<polygon class="st0" points="151.14,100.19 288.74,100.19 366.87,100.19 409.38,80.19 449.94,100.19 517.54,100.19 665.94,98.59 
			665.94,112.59 543.14,112.59 450.34,114.59 409.43,97.39 368.34,114.59 151.14,114.59 		"/>
		<path class="st3" d="M483.14,482.19"/>
	</g>
</g>
</svg>
